<svg width="24" height="24" viewBox="0 0 24 24" fill="none" xmlns="http://www.w3.org/2000/svg">
<path d="M24 12C24 18.6274 18.6274 24 12 24C5.37258 24 0 18.6274 0 12C0 5.37258 5.37258 0 12 0C18.6274 0 24 5.37258 24 12Z" fill="white"/>
<path d="M3 7L11.9614 2L20.9229 7L21 16.9583L11.9614 22L3 17V7ZM4.78971 9.0675V13.0317L7.65686 14.5817V17.5117L11.0614 19.425V12.5317L4.78971 9.0675ZM19.1374 9.0675L12.8657 12.5317V19.425L16.2703 17.5117V14.5833L19.1374 13.0325V9.0675ZM5.68629 7.50083L11.946 10.9542L18.2203 7.47083L14.9023 5.64L11.9794 7.26083L9.03943 5.62083L5.68543 7.5L5.68629 7.50083Z" fill="black"/>
</svg>
