<svg width="24" height="24" viewBox="0 0 24 24" fill="none" xmlns="http://www.w3.org/2000/svg">
<path d="M24 12C24 18.6274 18.6274 24 12 24C5.37258 24 0 18.6274 0 12C0 5.37258 5.37258 0 12 0C18.6274 0 24 5.37258 24 12Z" fill="black"/>
<path d="M12.0008 0.00076898C5.37109 0.00076898 0 5.51212 0 12.3046C0 17.7437 3.73495 21.8736 8.5 23.5C9.10229 23.6161 9.02306 23.7156 9.02306 23.3865C9.02306 23.0943 9.01631 22.3215 9.01181 21.2956C5.67186 22.0369 4.96831 19.6415 4.96831 19.6415C4.42153 18.2235 3.63248 17.8429 3.63248 17.8429C2.54641 17.0823 3.71873 17.0985 3.71873 17.0985C4.92181 17.1823 5.55485 18.3635 5.55485 18.3635C6.62516 20.246 8.36302 19.7015 9.05082 19.3847C9.15582 18.5919 9.46859 18.0466 9.80911 17.7429C7.14495 17.4345 4.34352 16.3772 4.34352 11.6625C4.34352 10.316 4.80855 9.21942 5.57735 8.35815C5.44459 8.04978 5.03807 6.79633 5.68311 5.10148C5.68311 5.10148 6.68742 4.77312 8.98331 6.36339C9.94412 6.0904 10.9642 5.95429 11.9835 5.94737C13.0036 5.95429 14.0229 6.09117 14.9837 6.36339C17.2661 4.77312 18.2696 5.10148 18.2696 5.10148C18.9139 6.79633 18.5074 8.04901 18.3904 8.35815C19.1517 9.21942 19.6167 10.3168 19.6167 11.6625C19.6167 16.3879 16.8116 17.4299 14.1444 17.7306C14.5614 18.0989 14.9522 18.8564 14.9522 20.006C14.9522 21.6517 14.9372 22.9774 14.9372 23.3781C14.9372 23.698 14.882 23.6238 15.5 23.5C20.3003 21.8905 24 17.7352 24 12.3038C24 5.51135 18.6297 0 12 0L12.0008 0.00076898Z" fill="white"/>
</svg>
