<svg viewBox="0 0 24 24" xmlns="http://www.w3.org/2000/svg">
	<title>LinkedIn</title>
	<path d="M5.58658 7.73796H0.768542C0.55471 7.73796 0.381445 7.91169 0.381445 8.12591V23.6383C0.381445 23.8526 0.55471 24.0263 0.768542 24.0263H5.58658C5.80041 24.0263 5.97368 23.8526 5.97368 23.6383V8.12591C5.97368 7.91169 5.80041 7.73796 5.58658 7.73796Z" fill="currentColor"/>
	<path d="M3.1793 0.0263672C1.42622 0.0263672 0 1.45418 0 3.20919C0 4.96497 1.42622 6.39333 3.1793 6.39333C4.93099 6.39333 6.35605 4.9649 6.35605 3.20919C6.35613 1.45418 4.93099 0.0263672 3.1793 0.0263672Z" fill="currentColor"/>
	<path d="M17.8416 7.35242C15.9065 7.35242 14.476 8.18612 13.6084 9.13342V8.12591C13.6084 7.91169 13.4351 7.73796 13.2213 7.73796H8.60717C8.39334 7.73796 8.22008 7.91169 8.22008 8.12591V23.6383C8.22008 23.8526 8.39334 24.0263 8.60717 24.0263H13.4147C13.6285 24.0263 13.8018 23.8526 13.8018 23.6383V15.9633C13.8018 13.377 14.5027 12.3694 16.3017 12.3694C18.2608 12.3694 18.4165 13.9847 18.4165 16.0964V23.6384C18.4165 23.8527 18.5898 24.0264 18.8036 24.0264H23.6129C23.8267 24.0264 24 23.8527 24 23.6384V15.1296C24 11.2838 23.2683 7.35242 17.8416 7.35242Z" fill="currentColor"/>
</svg>