<svg xmlns="http://www.w3.org/2000/svg" width="24" height="24" viewBox="0 0 24 24" fill="none">
<path d="M21.75 11.5H18V8.5C18 6.85938 19.3125 5.5 21 5.5H21.375C21.9844 5.5 22.5 5.03126 22.5 4.375V2.125C22.5 1.51563 21.9844 1 21.375 1H21C16.8281 1 13.5 4.375 13.5 8.5V19.75C13.5 21.0156 14.4844 22 15.75 22H21.75C22.9687 22 24 21.0156 24 19.75V13.75C24 12.5313 22.9687 11.5 21.75 11.5ZM8.25 11.5H4.5V8.5C4.5 6.85938 5.81251 5.5 7.5 5.5H7.875C8.48438 5.5 9 5.03126 9 4.375V2.125C9 1.51563 8.48438 1 7.875 1H7.5C3.32813 1 0 4.375 0 8.5V19.75C0 21.0156 0.984374 22 2.25 22H8.25C9.46874 22 10.5 21.0156 10.5 19.75V13.75C10.5 12.5313 9.46874 11.5 8.25 11.5Z" fill="url(#paint0_linear_118_33)"/>
<defs>
<linearGradient id="paint0_linear_118_33" x1="12" y1="-2.3" x2="12" y2="25.3" gradientUnits="userSpaceOnUse">
<stop stop-color="currentColor" stop-opacity="0.2"/>
<stop offset="1" stop-color="currentColor" stop-opacity="0"/>
</linearGradient>
</defs>
</svg>