<svg xmlns="http://www.w3.org/2000/svg" width="120" height="120" fill="none" viewBox="0 0 120 120">
  <g clip-path="url(#clip0_28_16)">
    <rect width="120" height="120" fill="#fff" rx="32.881"/>
    <path fill="#ED0B0F" d="M0 0h1355v1421H0z"/>
    <path fill="#fff" d="M38.375 34.129H8.807v7.549h29.568v-7.55z"/>
    <path fill="#fff" d="M16.199 34.129H8.807v52.844H16.2V34.129z"/>
    <path fill="#fff" d="M38.375 79.423H8.807v7.55h29.568v-7.55zm36.959-45.294H45.766v7.549h29.568v-7.55zm0 22.647H45.766v7.548h29.568v-7.548zm0 22.647H45.766v7.55h29.568v-7.55zm36.959-45.294H82.726v7.549h29.567v-7.55zm0 22.647H82.726v7.548h29.567v-7.548z"/>
    <path fill="#fff" d="M112.293 34.129h-7.391v30.196h7.391V34.129zm-18.71 29.724h7.391l3.928 8.021H97.51l-3.928-8.021zm7.623 15.57h7.391l3.696 7.55h-7.391l-3.696-7.55z"/>
  </g>
  <defs>
    <clipPath id="clip0_28_16">
      <rect width="120" height="120" fill="#fff" rx="32.881"/>
    </clipPath>
  </defs>
</svg>
